<?xml version="1.0" standalone="no"?>
<!DOCTYPE svg PUBLIC "-//W3C//DTD SVG 20010904//EN"
 "http://www.w3.org/TR/2001/REC-SVG-20010904/DTD/svg10.dtd">
<svg version="1.0" xmlns="http://www.w3.org/2000/svg"
 width="256.000000pt" height="256.000000pt" viewBox="0 0 256.000000 256.000000"
 preserveAspectRatio="xMidYMid meet">

<g transform="translate(0.000000,256.000000) scale(0.100000,-0.100000)"
fill="#000000" stroke="none">
<path d="M1639 2485 c-87 -32 -186 -113 -239 -196 -33 -51 -64 -132 -75 -199
l-7 -43 33 7 c166 33 324 214 353 404 7 48 -1 51 -65 27z"/>
<path d="M804 1886 c-128 -29 -272 -123 -353 -231 -95 -126 -135 -270 -135
-490 0 -171 17 -281 70 -443 93 -287 282 -562 439 -638 51 -24 72 -29 135 -28
64 0 87 6 156 37 150 68 233 72 368 18 244 -98 386 -41 561 224 31 47 74 119
95 158 44 81 104 242 96 256 -3 5 -30 20 -59 35 -68 33 -160 128 -192 198 -37
81 -51 182 -38 268 20 128 72 208 213 329 l35 30 -24 46 c-52 99 -204 202
-340 231 -133 28 -248 12 -453 -61 l-78 -28 -67 21 c-38 11 -101 33 -140 47
-90 32 -204 40 -289 21z"/>
</g>
</svg>
