<?xml version="1.0" standalone="no"?>
<!DOCTYPE svg PUBLIC "-//W3C//DTD SVG 20010904//EN"
 "http://www.w3.org/TR/2001/REC-SVG-20010904/DTD/svg10.dtd">
<svg version="1.0" xmlns="http://www.w3.org/2000/svg"
 width="512.000000pt" height="512.000000pt" viewBox="0 0 512.000000 512.000000"
 preserveAspectRatio="xMidYMid meet">

<g transform="translate(0.000000,512.000000) scale(0.100000,-0.100000)"
fill="#000000" stroke="none">
<path d="M1315 4605 c-130 -20 -233 -52 -350 -110 -324 -158 -536 -454 -626
-875 -30 -139 -33 -438 -6 -600 45 -268 113 -465 255 -744 306 -601 825 -1123
1549 -1559 175 -105 394 -217 424 -217 28 0 287 135 445 231 364 222 657 451
917 716 183 186 298 326 426 518 236 355 377 695 438 1055 27 162 24 461 -6
600 -91 424 -307 723 -636 881 -399 191 -867 152 -1412 -118 l-172 -85 -173
85 c-399 196 -761 272 -1073 222z m2504 -204 c192 -38 347 -119 480 -251 91
-91 135 -154 196 -282 154 -322 150 -776 -11 -1217 -79 -216 -242 -510 -394
-712 -300 -397 -738 -773 -1240 -1065 -68 -40 -126 -71 -128 -69 -2 2 22 96
52 210 31 114 56 222 56 240 0 28 -30 71 -183 266 -100 129 -213 273 -250 320
l-67 87 248 363 c136 200 274 402 305 448 70 103 76 124 51 171 -11 19 -152
199 -312 399 l-292 363 67 97 c213 306 231 328 290 364 156 94 394 195 563
238 203 52 401 62 569 30z"/>
</g>
</svg>
