<?xml version="1.0" standalone="no"?>
<!DOCTYPE svg PUBLIC "-//W3C//DTD SVG 20010904//EN"
 "http://www.w3.org/TR/2001/REC-SVG-20010904/DTD/svg10.dtd">
<svg version="1.0" xmlns="http://www.w3.org/2000/svg"
 width="840.000000pt" height="754.000000pt" viewBox="0 0 840.000000 754.000000"
 preserveAspectRatio="xMidYMid meet">

<g transform="translate(0.000000,754.000000) scale(0.100000,-0.100000)"
fill="#000000" stroke="none">
<path d="M3320 7129 c-945 -52 -1844 -426 -2433 -1012 -285 -285 -493 -626
-615 -1007 -62 -195 -67 -236 -67 -570 0 -345 6 -394 76 -604 99 -294 249
-565 441 -792 37 -45 68 -87 68 -93 0 -6 -91 -237 -201 -513 -275 -687 -389
-982 -380 -986 9 -3 77 26 999 420 l703 300 177 -66 c98 -36 184 -66 191 -66
16 0 13 17 -29 200 -43 186 -53 277 -53 465 1 250 34 441 119 686 76 220 230
492 394 695 88 108 295 314 410 405 801 638 1908 890 3015 688 150 -27 376
-87 583 -153 202 -66 215 -67 206 -28 -22 91 -115 314 -185 443 -331 610 -956
1098 -1755 1372 -529 181 -1055 250 -1664 216z"/>
<path d="M5215 4949 c-540 -38 -968 -153 -1394 -375 -394 -205 -739 -509 -944
-831 -101 -158 -193 -371 -237 -547 -26 -106 -38 -328 -29 -546 5 -114 12
-166 33 -245 134 -484 450 -903 916 -1212 551 -366 1193 -538 1935 -520 399
10 703 62 1062 183 106 35 206 64 223 64 16 0 76 -17 132 -39 94 -35 228 -92
1016 -426 139 -59 256 -105 259 -101 7 7 -46 147 -288 753 l-189 473 69 87
c226 288 372 611 406 899 45 382 -3 683 -156 988 -221 439 -584 785 -1094
1042 -415 209 -816 311 -1395 354 -148 11 -151 11 -325 -1z"/>
</g>
</svg>
