<?xml version="1.0" standalone="no"?>
<!DOCTYPE svg PUBLIC "-//W3C//DTD SVG 20010904//EN"
 "http://www.w3.org/TR/2001/REC-SVG-20010904/DTD/svg10.dtd">
<svg version="1.0" xmlns="http://www.w3.org/2000/svg"
 width="512.000000pt" height="512.000000pt" viewBox="0 0 512.000000 512.000000"
 preserveAspectRatio="xMidYMid meet">

<g transform="translate(0.000000,512.000000) scale(0.100000,-0.100000)"
fill="#000000" stroke="none">
<path d="M741 5109 c-224 -29 -433 -154 -571 -339 -61 -84 -103 -167 -137
-277 l-28 -88 0 -1420 0 -1420 28 -90 c94 -302 313 -514 616 -598 71 -19 108
-21 526 -24 l450 -4 410 -409 c279 -279 422 -414 447 -425 48 -19 108 -19 156
0 25 11 168 146 447 425 l410 409 450 4 c503 4 524 7 684 82 186 89 322 227
411 418 81 175 75 48 75 1632 0 1351 -1 1413 -19 1480 -85 315 -306 538 -621
627 l-80 23 -1795 1 c-987 1 -1824 -2 -1859 -7z m3702 -457 c90 -44 169 -122
210 -209 l32 -68 0 -1390 0 -1390 -27 -58 c-54 -116 -151 -201 -270 -239 -55
-16 -102 -18 -536 -18 -356 -1 -486 -4 -512 -13 -25 -9 -143 -122 -405 -386
l-369 -372 -368 368 c-237 238 -380 374 -405 385 -34 16 -85 18 -519 18 -521
0 -529 1 -629 56 -69 39 -136 111 -175 190 l-35 69 0 1390 0 1390 28 56 c59
122 149 202 266 240 53 17 148 18 1851 16 l1795 -2 68 -33z"/>
<path d="M1185 4031 c-74 -34 -115 -102 -115 -191 0 -87 39 -153 112 -191 37
-19 75 -19 1391 -17 l1353 3 36 24 c56 39 82 84 86 156 7 105 -32 180 -113
216 -38 18 -101 19 -1375 19 -1277 0 -1337 -1 -1375 -19z"/>
<path d="M1225 3191 c-54 -14 -95 -41 -123 -83 -24 -37 -27 -51 -27 -122 0
-98 22 -142 93 -184 l47 -27 779 -3 c559 -2 796 1 835 9 114 23 177 132 150
258 -12 58 -52 111 -103 139 -28 16 -99 17 -826 19 -437 1 -808 -2 -825 -6z"/>
<path d="M1185 2326 c-69 -31 -115 -111 -115 -198 1 -96 56 -175 138 -198 24
-6 414 -10 1148 -10 l1110 0 50 25 c104 52 141 182 84 295 -22 44 -45 65 -93
85 -32 13 -171 15 -1164 15 -920 -1 -1134 -3 -1158 -14z"/>
</g>
</svg>
