<?xml version="1.0" standalone="no"?>
<!DOCTYPE svg PUBLIC "-//W3C//DTD SVG 20010904//EN"
 "http://www.w3.org/TR/2001/REC-SVG-20010904/DTD/svg10.dtd">
<svg version="1.0" xmlns="http://www.w3.org/2000/svg"
 width="512.000000pt" height="512.000000pt" viewBox="0 0 512.000000 512.000000"
 preserveAspectRatio="xMidYMid meet">

<g transform="translate(0.000000,512.000000) scale(0.100000,-0.100000)"
fill="#000000" stroke="none">
<path d="M109 4802 c-43 -22 -59 -38 -81 -81 l-28 -53 0 -1632 c0 -1565 1
-1633 19 -1672 25 -54 83 -101 143 -114 64 -13 2921 -14 2916 -1 -1 6 -49 64
-106 130 l-103 121 -270 0 -269 0 0 165 0 165 140 0 140 0 -40 53 c-22 28 -54
85 -72 124 l-33 73 -987 0 -988 0 0 960 0 960 1645 0 1645 0 0 -960 0 -960
-222 0 -222 0 95 -99 c51 -54 98 -99 103 -100 5 0 39 25 75 57 187 164 421
291 594 323 l67 12 0 1186 c0 797 -4 1198 -11 1224 -13 49 -63 105 -114 128
-38 18 -126 19 -2011 19 l-1972 0 -53 -28z m911 -392 l0 -160 -260 0 -260 0 0
160 0 160 260 0 260 0 0 -160z m920 0 l0 -160 -260 0 -260 0 0 160 0 160 260
0 260 0 0 -160z m910 0 l0 -160 -260 0 -260 0 0 160 0 160 260 0 260 0 0 -160z
m920 0 l0 -160 -260 0 -260 0 0 160 0 160 260 0 260 0 0 -160z m-2750 -2745
l0 -165 -260 0 -260 0 0 165 0 165 260 0 260 0 0 -165z m915 0 l0 -160 -257
-3 -258 -2 0 165 0 165 258 -2 257 -3 0 -160z"/>
<path d="M1810 3727 c-52 -40 -50 -18 -50 -640 0 -522 2 -582 17 -607 19 -34
52 -50 97 -50 29 0 75 34 342 258 387 323 414 348 414 391 0 18 -7 45 -16 59
-9 15 -82 82 -163 149 -80 67 -235 196 -344 287 -188 157 -200 166 -240 166
-23 0 -49 -6 -57 -13z"/>
<path d="M2756 2310 c-16 -5 -42 -21 -57 -36 -60 -58 -62 -143 -6 -248 18 -35
217 -286 460 -583 235 -287 427 -527 427 -532 0 -14 -27 -21 -78 -21 -75 0
-176 37 -304 112 -120 69 -249 72 -323 6 -92 -81 -41 -171 195 -338 255 -182
504 -296 766 -351 90 -19 139 -23 279 -23 150 1 181 4 266 26 363 98 626 306
711 563 19 59 23 90 22 195 -1 132 -12 193 -61 325 -60 163 -205 403 -312 518
-98 104 -228 165 -354 166 -212 3 -478 -138 -744 -393 l-73 -69 -57 50 c-32
28 -127 124 -212 214 -326 348 -345 367 -396 392 -60 29 -110 38 -149 27z"/>
</g>
</svg>
