<svg xmlns="http://www.w3.org/2000/svg" width="25" height="25" viewBox="0 0 25 25"><path fill-rule="evenodd" d="M 12.5 0 A 12.5 12.5 0 0 0 0 12.5 A 12.5 12.5 0 0 0 12.5 25 A 12.5 12.5 0 0 0 25 12.5 A 12.5 12.5 0 0 0 12.5 0 z M 19.363281 5.65625 L 17.947266 9.90625 L 11.488281 16.332031 L 11.480469 16.341797 L 11.484375 16.341797 L 10.148438 17.679688 C 9.9357425 17.892387 9.6522716 17.998047 9.3691406 17.998047 C 9.0860096 17.998047 8.8025388 17.892388 8.5898438 17.679688 L 7.3183594 16.408203 C 6.8930205 15.982803 6.8930205 15.275009 7.3183594 14.849609 L 8.65625 13.513672 L 8.6640625 13.523438 L 15.115234 7.0722656 L 19.363281 5.65625 z M 17.78125 7.2382812 L 15.998047 7.8320312 L 17.1875 9.0214844 L 17.78125 7.2382812 z M 15.177734 8.4257812 L 9.71875 13.882812 L 11.132812 15.275391 L 16.591797 9.8398438 L 15.177734 8.4257812 z M 9.0058594 14.580078 L 8.0273438 15.558594 C 7.9813737 15.604094 7.9813737 15.657125 8.0273438 15.703125 L 9.296875 16.974609 C 9.3427972 17.020609 9.3954862 17.020609 9.4414062 16.974609 L 10.429688 15.984375 L 9.0058594 14.580078 z "/></svg>