<svg xmlns="http://www.w3.org/2000/svg" width="48" height="43" viewBox="0 0 48 43">
  <g id="Group_174" data-name="Group 174" transform="translate(-169 -591)">
    <rect id="Rectangle_254" data-name="Rectangle 254" width="48" height="43" rx="6" transform="translate(169 591)" fill="#d42112"/>
    <path id="Path_2278" data-name="Path 2278" d="M13.756,20.722c0,1.122,0,2.244,0,3.365,1.881.061,3.766.033,5.647.061-.83,4.171-6.5,5.524-9.507,2.8a6.32,6.32,0,0,1,.269-9.851c2.244-1.791,5.434-1.348,7.678.2a35.131,35.131,0,0,0,2.5-2.592,10,10,0,0,0-6.594-2.437,9.876,9.876,0,0,0-3.577,19.075c3.846,1.48,8.776.471,11.232-2.984a11.316,11.316,0,0,0,1.782-7.631C20.044,20.708,16.9,20.712,13.756,20.722Z" transform="translate(180.116 589.737)" fill="#fff"/>
  </g>
</svg>
