<svg xmlns="http://www.w3.org/2000/svg" viewBox="0 0 32 32"><path fill="#E02F2F" d="M15.995 0c-8.837 0-16 7.163-16 16 0 8.836 7.163 16 16 16s16-7.164 16-16c0-8.837-7.164-16-16-16z"/><g fill="#FFF"><path d="M18.204 7.182h-5.435c-2.486 0-4.827 1.745-4.827 3.926 0 2.229 1.695 3.962 4.224 3.962.176 0 .347-.04.515-.052-.166.313-.28.65-.28 1.017 0 .62.332 1.114.753 1.524-.316 0-.625.004-.961.004-3.08.001-5.45 1.961-5.45 3.995 0 2.003 2.599 3.258 5.679 3.258 3.512 0 5.451-1.994 5.451-3.997 0-1.606-.474-2.568-1.939-3.607-.502-.354-1.46-1.217-1.46-1.725 0-.594.169-.887 1.065-1.587.916-.716 1.566-1.57 1.566-2.743 0-1.394-.6-3.095-1.766-3.095h1.984l.881-.88zM16.38 20.473c.042.187.068.378.068.572 0 1.619-1.045 2.884-4.038 2.884-2.129 0-3.666-1.347-3.666-2.966 0-1.586 1.907-2.908 4.037-2.884.495.005.959.086 1.379.22 1.156.804 1.985 1.259 2.22 2.174zm-3.41-6.039c-1.429-.041-2.788-1.598-3.034-3.474-.246-1.878.712-3.314 2.141-3.272 1.428.044 2.788 1.55 3.034 3.426.246 1.877-.712 3.362-2.141 3.32zM22.612 14.23v-2.645h-1.763v2.645h-2.645v1.763h2.645v2.645h1.763v-2.645h2.645V14.23z"/></g></svg>