<svg xmlns="http://www.w3.org/2000/svg" viewBox="0 0 32 32"><path d="M16-.01c-8.837 0-16 7.163-16 16 0 8.836 7.163 16 16 16s16-7.164 16-16c0-8.837-7.163-16-16-16z"/><path fill="#FFF" d="M24.477 14.334c.111.59.171 1.209.171 1.854 0 5.044-3.377 8.631-8.476 8.631-4.878 0-8.83-3.952-8.83-8.83s3.952-8.83 8.83-8.83c2.384 0 4.376.877 5.905 2.301l-2.489 2.489v-.006c-.927-.883-2.102-1.336-3.416-1.336-2.914 0-5.281 2.461-5.281 5.375 0 2.913 2.368 5.381 5.281 5.381 2.644 0 4.442-1.512 4.813-3.587h-4.813v-3.444l8.305.002z"/></svg>