<?xml version="1.0" standalone="no"?>
<!DOCTYPE svg PUBLIC "-//W3C//DTD SVG 20010904//EN"
 "http://www.w3.org/TR/2001/REC-SVG-20010904/DTD/svg10.dtd">
<svg version="1.0" xmlns="http://www.w3.org/2000/svg"
 width="640.000000pt" height="640.000000pt" viewBox="0 0 640.000000 640.000000"
 preserveAspectRatio="xMidYMid meet">

<g transform="translate(0.000000,640.000000) scale(0.100000,-0.100000)"
fill="#000000" stroke="none">
<path d="M2143 5556 c-95 -31 -186 -117 -225 -214 -22 -56 -23 -67 -26 -448
l-3 -391 -82 -6 c-46 -4 -107 -14 -137 -23 -226 -66 -425 -268 -461 -468 -30
-168 53 -332 204 -401 72 -33 158 -45 330 -45 l147 0 0 -360 0 -360 -252 0
c-297 0 -351 -9 -483 -74 -152 -75 -274 -206 -326 -351 -25 -71 -30 -199 -10
-260 34 -103 112 -184 219 -227 55 -22 68 -23 453 -26 l396 -3 5 -87 c17 -280
224 -524 491 -578 177 -36 326 35 404 193 l38 77 3 198 4 198 366 -2 367 -3 5
-290 5 -290 29 -70 c85 -206 255 -361 445 -405 176 -41 352 39 424 192 40 84
47 160 47 531 l0 337 58 0 c106 0 254 49 356 119 17 11 54 44 84 73 141 136
206 319 168 468 -30 119 -112 208 -234 253 -49 18 -85 22 -244 25 l-188 4 0
358 0 358 273 5 c307 5 336 10 471 80 226 117 372 380 322 577 -30 120 -115
210 -241 256 -45 17 -91 19 -436 22 l-387 3 -6 67 c-10 100 -25 159 -61 237
-102 223 -310 370 -520 368 -125 -1 -219 -47 -290 -140 -60 -79 -75 -148 -75
-354 l0 -179 -370 0 -370 0 0 263 c0 293 -6 331 -65 452 -69 141 -200 266
-335 321 -79 32 -220 42 -287 20z m1427 -2356 l0 -360 -370 0 -370 0 0 360 0
360 370 0 370 0 0 -360z"/>
</g>
</svg>
