<?xml version="1.0" standalone="no"?>
<!DOCTYPE svg PUBLIC "-//W3C//DTD SVG 20010904//EN"
 "http://www.w3.org/TR/2001/REC-SVG-20010904/DTD/svg10.dtd">
<svg version="1.0" xmlns="http://www.w3.org/2000/svg"
 width="1200.000000pt" height="1200.000000pt" viewBox="0 0 1200.000000 1200.000000"
 preserveAspectRatio="xMidYMid meet">

<g transform="translate(0.000000,1200.000000) scale(0.100000,-0.100000)"
fill="#000000" stroke="none">
<path d="M5810 11549 c-344 -33 -652 -172 -925 -417 -137 -123 -4157 -4149
-4235 -4241 -256 -303 -379 -638 -380 -1031 0 -282 50 -510 160 -730 259 -516
783 -868 1335 -897 66 -3 126 -10 133 -16 9 -7 12 -245 12 -1126 0 -691 4
-1158 10 -1226 47 -500 272 -882 679 -1156 231 -156 436 -230 711 -259 136
-14 5207 -13 5360 1 147 13 240 32 367 74 506 168 892 603 1015 1143 22 96 22
104 28 1320 4 1072 7 1224 20 1232 8 5 34 10 58 10 208 1 477 67 677 167 249
125 505 363 655 608 174 284 261 647 231 965 -34 362 -156 656 -383 925 -91
108 -4204 4218 -4298 4295 -343 282 -762 404 -1230 359z m397 -7374 c300 -63
579 -280 679 -526 52 -128 53 -140 55 -804 1 -672 0 -688 -54 -823 -55 -134
-183 -285 -319 -375 -85 -56 -212 -114 -303 -138 -102 -27 -323 -37 -432 -19
-217 35 -416 140 -566 299 -109 116 -171 238 -203 399 -20 106 -21 1186 0
1294 69 359 343 611 755 693 91 18 304 18 388 0z"/>
</g>
</svg>
