<?xml version="1.0" standalone="no"?>
<!DOCTYPE svg PUBLIC "-//W3C//DTD SVG 20010904//EN"
 "http://www.w3.org/TR/2001/REC-SVG-20010904/DTD/svg10.dtd">
<svg version="1.0" xmlns="http://www.w3.org/2000/svg"
 width="886.000000pt" height="981.000000pt" viewBox="0 0 886.000000 981.000000"
 preserveAspectRatio="xMidYMid meet">

<g transform="translate(0.000000,981.000000) scale(0.100000,-0.100000)"
fill="#000000" stroke="none">
<path d="M1990 9779 c-123 -32 -249 -99 -308 -163 -60 -66 -74 -106 -102 -278
-44 -276 -106 -376 -385 -613 -184 -158 -463 -436 -571 -570 -602 -753 -745
-1534 -523 -2870 69 -417 179 -921 364 -1665 57 -228 108 -448 114 -488 21
-139 24 -272 8 -392 -29 -215 -65 -304 -310 -775 -128 -245 -167 -384 -167
-593 0 -227 64 -483 161 -650 47 -78 197 -226 299 -293 597 -394 1700 -528
2910 -353 1441 208 2870 819 3976 1701 731 582 1238 1240 1370 1779 22 89 27
133 28 239 1 153 -16 223 -93 396 -130 292 -317 491 -576 613 -41 20 -161 70
-267 111 -320 126 -464 211 -610 359 -147 149 -211 253 -390 633 -484 1030
-764 1560 -1073 2028 -205 310 -354 496 -570 710 -370 368 -767 587 -1266 699
-255 57 -440 75 -859 86 -283 6 -346 11 -405 27 -103 29 -192 75 -265 137 -36
31 -98 83 -138 116 -112 92 -200 109 -352 69z m5115 -5610 c507 -38 865 -181
961 -382 15 -32 16 -43 5 -91 -66 -296 -553 -867 -1133 -1329 -1014 -808
-2304 -1350 -3598 -1511 -318 -40 -478 -50 -810 -50 -409 0 -684 24 -1003 88
-255 52 -488 138 -551 205 -102 107 17 424 279 741 491 595 1431 1198 2580
1655 1245 495 2423 738 3270 674z"/>
<path d="M4425 3246 c-973 -350 -1744 -744 -2350 -1202 -219 -165 -233 -178
-216 -198 28 -33 185 -130 272 -168 553 -238 1339 -108 1952 322 130 92 357
320 436 439 155 234 219 435 208 651 -6 115 -35 234 -58 237 -8 1 -117 -36
-244 -81z"/>
</g>
</svg>
