<?xml version="1.0" standalone="no"?>
<!DOCTYPE svg PUBLIC "-//W3C//DTD SVG 20010904//EN"
 "http://www.w3.org/TR/2001/REC-SVG-20010904/DTD/svg10.dtd">
<svg version="1.0" xmlns="http://www.w3.org/2000/svg"
 width="200.000000pt" height="200.000000pt" viewBox="0 0 200.000000 200.000000"
 preserveAspectRatio="xMidYMid meet">

<g transform="translate(0.000000,200.000000) scale(0.100000,-0.100000)"
fill="#000000" stroke="none">
<path d="M1400 1524 l0 -100 -88 -12 c-163 -22 -259 -68 -354 -171 -83 -90
-135 -210 -154 -357 l-7 -58 66 59 c113 104 215 154 357 176 40 6 97 8 126 4
l54 -6 0 -122 0 -122 202 203 203 202 -203 202 -202 203 0 -101z"/>
<path d="M243 1568 c-12 -6 -27 -22 -33 -37 -7 -18 -10 -192 -8 -568 3 -505 4
-544 21 -560 17 -17 57 -18 677 -18 619 0 660 1 677 18 16 16 18 42 21 218 l3
201 -100 -87 c-91 -78 -101 -90 -101 -121 l0 -34 -500 0 -500 0 0 400 0 400
243 0 242 0 100 100 100 100 -410 -1 c-265 0 -418 -4 -432 -11z"/>
</g>
</svg>
