<?xml version="1.0" standalone="no"?>
<!DOCTYPE svg PUBLIC "-//W3C//DTD SVG 20010904//EN"
 "http://www.w3.org/TR/2001/REC-SVG-20010904/DTD/svg10.dtd">
<svg version="1.0" xmlns="http://www.w3.org/2000/svg"
 width="256.000000pt" height="256.000000pt" viewBox="0 0 256.000000 256.000000"
 preserveAspectRatio="xMidYMid meet">

<g transform="translate(0.000000,256.000000) scale(0.100000,-0.100000)"
fill="#000000" stroke="none">
<path d="M1095 2526 c-180 -58 -302 -179 -362 -359 -25 -75 -27 -96 -27 -232
0 -124 4 -164 22 -232 43 -158 107 -288 203 -409 60 -75 71 -104 68 -171 -2
-47 1 -57 27 -84 16 -16 58 -44 94 -62 60 -30 72 -32 165 -32 93 0 105 2 166
32 97 48 113 69 120 162 5 77 6 79 67 160 106 140 161 255 203 417 29 117 32
307 6 404 -56 211 -205 363 -403 415 -91 24 -262 20 -349 -9z"/>
<path d="M762 931 c-201 -88 -358 -186 -458 -285 -87 -88 -104 -129 -104 -252
0 -94 2 -103 30 -147 60 -95 210 -163 462 -209 117 -22 147 -23 593 -23 444 0
477 1 591 22 275 51 417 122 475 235 24 48 27 190 4 245 -45 107 -184 228
-374 326 -130 68 -279 130 -295 124 -7 -3 -18 -31 -25 -63 -50 -226 -195 -658
-213 -634 -2 3 -16 46 -32 95 -16 50 -44 131 -63 180 l-34 90 23 15 c86 56
104 123 47 180 -17 17 -48 39 -69 50 l-38 19 -52 -26 c-57 -28 -90 -71 -90
-117 0 -23 12 -41 52 -79 l52 -48 -18 -47 c-11 -26 -40 -109 -66 -186 l-47
-138 -36 85 c-47 114 -96 268 -147 462 -23 88 -45 163 -49 167 -3 4 -57 -15
-119 -41z"/>
</g>
</svg>
