<?xml version="1.0" standalone="no"?>
<!DOCTYPE svg PUBLIC "-//W3C//DTD SVG 20010904//EN"
 "http://www.w3.org/TR/2001/REC-SVG-20010904/DTD/svg10.dtd">
<svg version="1.0" xmlns="http://www.w3.org/2000/svg"
 width="480.000000pt" height="480.000000pt" viewBox="0 0 480.000000 480.000000"
 preserveAspectRatio="xMidYMid meet">

<g transform="translate(0.000000,480.000000) scale(0.100000,-0.100000)"
fill="#000000" stroke="none">
<path d="M2215 4629 c-319 -44 -601 -184 -830 -414 -210 -209 -343 -459 -402
-752 -24 -122 -24 -404 0 -526 59 -293 192 -543 402 -752 207 -208 437 -332
733 -397 130 -29 413 -31 545 -5 293 59 544 192 752 401 208 208 332 438 397
734 31 140 31 424 0 564 -65 296 -189 526 -397 734 -208 208 -459 343 -746
399 -100 20 -356 28 -454 14z"/>
<path d="M1028 1928 c-116 -87 -319 -293 -414 -420 -206 -275 -342 -577 -407
-898 -27 -129 -47 -303 -47 -397 l0 -53 1546 0 c1200 0 1544 3 1538 12 -4 7
-151 178 -327 381 -264 304 -317 371 -306 381 45 42 510 485 590 563 l95 94
195 -236 c106 -129 196 -235 199 -235 12 0 420 460 420 473 0 32 -358 369
-417 394 -7 3 -52 -32 -100 -76 -443 -411 -1059 -565 -1641 -411 -280 75 -532
213 -744 410 -47 44 -89 80 -92 80 -2 0 -42 -28 -88 -62z"/>
<path d="M4050 1035 c-201 -223 -368 -404 -372 -403 -3 2 -97 113 -208 247
l-202 243 -114 -113 -113 -113 63 -70 c34 -39 176 -203 315 -364 139 -160 257
-292 261 -292 5 0 223 235 486 521 l477 521 -114 114 -114 114 -365 -405z"/>
</g>
</svg>
