<?xml version="1.0" standalone="no"?>
<!DOCTYPE svg PUBLIC "-//W3C//DTD SVG 20010904//EN"
 "http://www.w3.org/TR/2001/REC-SVG-20010904/DTD/svg10.dtd">
<svg version="1.0" xmlns="http://www.w3.org/2000/svg"
 width="480.000000pt" height="480.000000pt" viewBox="0 0 480.000000 480.000000"
 preserveAspectRatio="xMidYMid meet">

<g transform="translate(0.000000,480.000000) scale(0.100000,-0.100000)"
fill="#000000" stroke="none">
<path d="M2215 4629 c-319 -44 -601 -184 -830 -414 -210 -209 -343 -459 -402
-752 -24 -122 -24 -404 0 -526 59 -293 192 -543 402 -752 207 -208 438 -333
733 -397 119 -26 402 -31 522 -9 299 54 562 192 775 405 208 208 332 438 397
734 31 140 31 424 0 564 -65 296 -189 526 -397 734 -208 208 -459 343 -746
399 -100 20 -356 28 -454 14z"/>
<path d="M1028 1928 c-116 -87 -319 -293 -414 -420 -206 -275 -342 -577 -407
-898 -27 -129 -47 -303 -47 -397 l0 -53 1440 0 1440 0 0 560 0 560 240 0 240
0 0 240 0 240 217 0 217 0 -39 41 c-45 46 -218 189 -229 189 -4 0 -47 -36 -94
-80 -442 -410 -1059 -564 -1640 -410 -293 78 -589 247 -782 444 -24 25 -47 46
-51 46 -4 0 -45 -28 -91 -62z"/>
<path d="M3840 1200 l0 -240 -240 0 -240 0 0 -160 0 -160 240 0 240 0 0 -240
0 -240 160 0 160 0 0 240 0 240 240 0 240 0 0 160 0 160 -240 0 -240 0 0 240
0 240 -160 0 -160 0 0 -240z"/>
</g>
</svg>
