<svg xmlns="http://www.w3.org/2000/svg" width="54.483" height="48.302" viewBox="0 0 54.483 48.302">
  <g id="video-icon" transform="translate(0 0)">
    <path id="Path_296" data-name="Path 296" d="M1.161-482.7a1.628,1.628,0,0,0-.863.863l-.3.565v17.386c0,16.672.011,17.4.2,17.812a2.312,2.312,0,0,0,1.523,1.215c.682.138,31.118.149,31.065.011a15.78,15.78,0,0,0-1.129-1.385l-1.1-1.289H24.822v-3.516h2.983l-.426-.565a8.139,8.139,0,0,1-.767-1.321l-.352-.778H5.22v-20.454H40.27V-453.7H35.54l1.012,1.055a10.618,10.618,0,0,0,1.1,1.065,4.132,4.132,0,0,0,.8-.607,14.974,14.974,0,0,1,6.328-3.441l.714-.128v-12.635c0-8.491-.043-12.762-.117-13.039a2.374,2.374,0,0,0-1.214-1.364c-.4-.192-1.342-.2-21.424-.2H1.726Zm9.705,4.176v1.7H5.327v-3.409h5.54Zm9.8,0v1.7h-5.54v-3.409h5.54Zm9.695,0v1.7h-5.54v-3.409h5.54Zm9.8,0v1.7h-5.54v-3.409h5.54Zm-29.3,29.243v1.758H5.327v-3.516h5.54Zm9.748,0v1.7l-2.738.032-2.749.021v-3.516l2.749.021,2.738.032Z" transform="translate(0 483)" fill="#fff"/>
    <path id="Path_298" data-name="Path 298" d="M266.348-231.405a1.809,1.809,0,0,0-.607.383c-.639.618-.66,1.523-.064,2.642.192.373,2.312,3.047,4.9,6.211,2.5,3.057,4.549,5.614,4.549,5.667,0,.149-.288.224-.831.224a7.052,7.052,0,0,1-3.239-1.193,3,3,0,0,0-3.441-.064c-.98.863-.437,1.822,2.077,3.6a21.5,21.5,0,0,0,8.16,3.739,11.921,11.921,0,0,0,2.972.245,9.087,9.087,0,0,0,2.834-.277c3.867-1.044,6.669-3.26,7.575-6a5.365,5.365,0,0,0,.234-2.077,8.323,8.323,0,0,0-.65-3.462,20.091,20.091,0,0,0-3.324-5.518,5.367,5.367,0,0,0-3.771-1.768c-2.259-.032-5.092,1.47-7.926,4.187l-.778.735-.607-.533c-.341-.3-1.353-1.321-2.259-2.28-3.473-3.707-3.675-3.91-4.219-4.176A2.317,2.317,0,0,0,266.348-231.405Z" transform="translate(-236.988 258.252)" fill="#fff"/>
    <rect id="Rectangle_321" data-name="Rectangle 321" width="11" height="11" rx="2" transform="translate(16.848 12.854)" fill="#fff"/>
  </g>
</svg>
